<?xml version="1.0" standalone="no"?>
<!DOCTYPE svg PUBLIC "-//W3C//DTD SVG 20010904//EN"
 "http://www.w3.org/TR/2001/REC-SVG-20010904/DTD/svg10.dtd">
<svg version="1.0" xmlns="http://www.w3.org/2000/svg"
 width="450.000000pt" height="450.000000pt" viewBox="0 0 450.000000 450.000000"
 preserveAspectRatio="xMidYMid meet">

<g transform="translate(0.000000,450.000000) scale(0.100000,-0.100000)"
fill="#000000" stroke="none">
<path d="M2721 3459 c-24 -5 -54 -15 -67 -24 -28 -18 -32 -56 -8 -76 13 -11
21 -10 51 6 46 25 101 25 119 0 20 -27 19 -31 -30 -83 -25 -26 -48 -60 -51
-75 -7 -26 -6 -27 39 -27 25 0 46 5 46 10 0 6 17 29 39 53 47 52 61 78 61 114
0 75 -91 122 -199 102z m136 -39 c38 -23 50 -59 34 -98 -17 -38 -96 -122 -115
-122 -27 0 -18 21 29 71 49 53 55 75 26 110 -16 20 -28 24 -68 23 -27 0 -59
-8 -74 -17 -14 -9 -29 -14 -32 -10 -48 48 129 86 200 43z"/>
<path d="M1405 3246 c-46 -20 -60 -42 -47 -71 13 -28 35 -31 72 -10 14 8 41
14 61 15 63 0 78 -42 32 -88 -41 -39 -63 -74 -63 -99 0 -21 5 -23 45 -23 37 0
45 3 45 18 0 10 18 36 40 57 75 73 74 162 -3 198 -42 20 -139 22 -182 3z m174
-21 c33 -16 56 -64 46 -95 -4 -12 -27 -44 -51 -71 -24 -27 -44 -54 -44 -59 0
-6 -11 -10 -25 -10 -37 0 -31 23 20 74 49 50 58 86 28 118 -21 23 -99 25 -131
2 -23 -16 -52 -13 -52 6 0 6 15 19 33 30 39 24 134 27 176 5z"/>
<path d="M2062 3150 c-18 -11 -39 -20 -48 -20 -8 0 -26 -11 -40 -25 -14 -14
-35 -25 -47 -25 -36 0 -87 -38 -103 -76 -18 -42 -6 -118 24 -163 13 -19 17
-39 14 -72 -3 -43 0 -51 33 -88 l38 -41 -8 -138 c-7 -142 -9 -147 -55 -158
-14 -3 -110 -38 -215 -77 -150 -56 -198 -79 -227 -107 -47 -45 -257 -448 -239
-460 9 -5 -11 -56 -68 -176 -45 -93 -81 -182 -81 -197 0 -15 7 -41 15 -57 14
-27 5 -44 -10 -20 -12 19 -36 10 -53 -20 -9 -16 -22 -30 -28 -30 -17 0 -25
-28 -18 -66 5 -29 3 -34 -25 -49 -18 -9 -37 -27 -43 -40 -6 -13 -16 -21 -23
-19 -7 3 -17 -8 -23 -25 -7 -21 -18 -31 -31 -31 -18 0 -61 -43 -61 -61 0 -5
665 -9 1505 -9 828 0 1505 3 1505 8 0 27 -24 82 -44 101 -16 15 -22 29 -18 46
2 15 0 25 -7 25 -6 0 -16 12 -21 26 -8 21 -13 24 -25 14 -10 -9 -19 -9 -35 0
-12 6 -28 9 -36 6 -8 -3 -14 1 -14 9 0 8 -4 15 -9 15 -5 0 -11 10 -13 22 -4
26 -28 37 -28 12 0 -16 -1 -16 -19 0 -13 12 -32 17 -61 15 -39 -3 -42 -1 -65
39 l-24 41 40 32 39 31 0 459 c0 252 -1 459 -3 459 -2 0 -79 -40 -172 -90 -93
-49 -172 -90 -177 -90 -4 0 -23 8 -42 17 -35 16 -36 19 -131 307 -94 282 -96
292 -84 334 16 57 0 112 -42 144 -16 13 -43 35 -59 50 -16 15 -47 30 -67 34
-32 6 -48 2 -106 -30 -38 -21 -71 -35 -74 -33 -2 3 0 14 6 25 32 60 2 133 -66
158 -27 10 -61 30 -77 46 -15 15 -36 28 -45 29 -9 0 -52 2 -96 5 -67 3 -85 1
-113 -16z m611 -219 c8 -8 -2 -11 -35 -11 -54 0 -94 -13 -124 -41 -15 -14 -24
-17 -29 -9 -9 14 -6 17 52 52 37 22 57 27 87 24 21 -3 43 -9 49 -15z m-489
-36 l51 -13 -40 -1 c-22 -1 -47 -5 -54 -10 -10 -6 0 -8 30 -5 53 6 35 -10 -24
-20 -24 -4 -43 -16 -53 -31 -10 -16 -26 -25 -41 -25 -25 0 -25 0 11 40 20 22
36 48 36 58 0 23 10 33 23 25 5 -3 33 -11 61 -18z m255 -3 c38 -20 71 -73 71
-112 0 -39 -33 -92 -71 -112 -41 -22 -75 -23 -113 -3 -15 8 -32 12 -37 9 -26
-16 -89 58 -89 106 0 32 32 85 61 101 l22 11 -21 -35 c-27 -42 -29 -108 -5
-148 25 -43 36 -35 13 8 -24 45 -25 72 -6 118 28 67 108 93 175 57z m287 2
c22 -11 40 -31 55 -61 19 -39 20 -50 10 -83 -12 -42 -58 -86 -99 -97 -40 -10
-103 17 -129 56 -41 61 -23 143 40 181 39 24 78 25 123 4z m-176 -36 c-11 -18
-20 -42 -21 -53 0 -15 -3 -14 -11 8 -9 24 -7 32 13 53 32 34 42 30 19 -8z
m-364 -86 l0 -58 -28 4 c-28 4 -58 35 -58 59 0 21 38 53 63 53 20 0 22 -5 23
-58z m-207 13 c21 -36 51 -47 51 -20 0 28 38 16 58 -19 19 -32 65 -56 110 -56
7 0 26 -10 43 -22 21 -16 48 -23 95 -26 l66 -4 -7 -36 c-14 -77 -72 -142 -126
-142 -26 0 -29 -3 -29 -34 0 -59 12 -98 32 -103 23 -7 23 -18 -3 -59 -22 -36
-43 -51 -91 -65 -25 -7 -44 -1 -117 35 -47 24 -91 41 -96 39 -6 -2 -26 10 -45
26 l-35 29 26 10 c26 10 26 11 33 161 l6 151 -33 34 c-43 42 -53 80 -32 112
24 38 68 33 94 -11z m581 -100 c20 -25 -5 -17 -29 9 -17 18 -20 30 -15 51 l7
27 12 -36 c7 -20 18 -43 25 -51z m-3 -34 c37 -19 143 -14 181 9 l32 20 11 -27
c29 -73 168 -507 164 -511 -2 -2 -48 20 -102 50 l-98 55 -22 104 c-28 133 -65
205 -110 214 -42 8 -138 98 -129 122 6 14 9 14 29 -4 12 -11 32 -26 44 -32z
m-45 -41 c29 -29 66 -55 88 -61 32 -10 41 -20 63 -68 20 -43 57 -184 57 -218
0 -2 -8 0 -17 6 -14 7 -29 3 -61 -15 l-43 -25 -147 51 c-81 29 -157 56 -169
61 -19 7 -23 16 -23 53 0 40 2 44 28 49 60 12 112 79 128 162 6 38 18 54 37
55 5 0 31 -22 59 -50z m-594 -336 l52 -39 -2 -240 -3 -239 -30 -6 c-50 -11
-70 -29 -119 -111 -26 -44 -51 -79 -56 -79 -11 0 -157 -19 -192 -25 -27 -4
-28 -3 -28 45 0 42 7 61 43 117 65 101 70 113 54 113 -8 0 -37 -38 -66 -84
l-51 -84 -151 38 c-83 21 -152 40 -154 42 -7 7 204 401 228 425 24 25 392 174
413 168 5 -2 34 -20 62 -41z m534 -16 l118 -42 -108 -63 c-59 -34 -111 -63
-115 -63 -4 0 -42 19 -84 42 l-76 41 37 19 c22 11 49 38 64 63 15 25 31 45 37
45 5 0 62 -19 127 -42z m-285 -102 l158 -84 3 -486 c1 -267 -1 -486 -4 -486
-3 0 -80 39 -170 87 l-164 88 0 101 0 102 87 12 c76 11 90 16 115 44 18 20 27
38 24 50 -3 11 -1 25 4 32 6 6 7 32 3 59 -5 42 -10 49 -40 61 -19 8 -70 17
-114 21 l-79 6 0 238 c0 148 4 239 10 239 5 0 80 -38 167 -84z m709 -4 l159
-87 3 -483 c1 -323 -1 -482 -8 -482 -6 0 -82 36 -170 80 l-160 80 0 490 c0
270 4 490 8 490 5 0 80 -39 168 -88z m-726 -425 c29 -8 46 -18 48 -30 3 -15
-2 -17 -52 -11 -39 5 -56 3 -56 -5 0 -6 15 -11 34 -11 46 0 89 -17 83 -33 -3
-8 -21 -11 -56 -9 -31 2 -51 -1 -51 -7 0 -6 15 -11 33 -11 37 0 74 -21 64 -37
-4 -6 -29 -8 -59 -5 -30 2 -49 1 -45 -4 9 -10 14 -11 52 -13 14 0 25 -5 25
-11 0 -11 -53 -26 -126 -35 -45 -6 -59 -14 -106 -59 -87 -84 -134 -101 -457
-162 -347 -66 -356 -67 -393 -25 -18 20 -28 43 -28 62 0 26 137 336 161 363 6
7 264 -49 278 -60 2 -2 -13 -29 -32 -61 -25 -40 -32 -59 -23 -61 17 -4 327 36
335 43 3 3 31 43 61 88 47 70 61 84 95 94 51 15 157 15 215 0z m-640 -172 c0
-29 -4 -35 -21 -35 -11 0 -19 3 -17 8 21 42 32 62 35 62 1 0 3 -16 3 -35z
m650 -396 l184 -98 41 23 c253 146 300 166 342 138 10 -6 43 -221 43 -281 l0
-21 -620 0 -620 0 0 175 c0 173 0 175 23 179 12 3 68 14 125 26 117 22 213 64
257 110 l30 31 5 -92 5 -92 185 -98z m-650 -48 c0 -88 -3 -166 -6 -175 -4 -11
-19 -16 -50 -16 -42 0 -44 1 -34 20 13 25 -5 27 -38 4 -26 -18 -29 -8 -6 24
21 30 -3 30 -41 0 l-28 -22 6 34 c3 19 9 44 13 54 11 28 -13 11 -35 -26 l-18
-29 -8 33 -9 33 -3 -35 c-6 -56 -11 -64 -29 -49 -13 11 -14 9 -9 -14 l7 -27
-171 0 -171 0 0 30 c0 42 25 89 66 125 32 29 34 32 22 62 -14 37 -6 52 17 33
13 -11 15 -9 15 13 0 52 23 76 35 36 6 -19 8 -19 25 -4 14 13 23 14 39 6 30
-16 88 -13 208 10 59 12 123 22 140 23 18 1 36 5 39 9 20 20 24 -6 24 -152z
m1828 118 c7 -13 17 -37 22 -53 10 -27 12 -28 29 -12 24 22 31 20 31 -9 0 -16
6 -25 15 -25 8 0 15 -4 15 -10 0 -5 -5 -10 -10 -10 -28 0 28 -49 62 -54 55 -9
128 -81 128 -126 0 -7 -132 -10 -415 -10 -228 0 -415 1 -415 3 -15 94 -33 277
-28 277 5 0 70 -31 146 -68 l137 -69 125 98 c69 54 130 97 135 95 6 -1 16 -13
23 -27z"/>
<path d="M2304 2856 c-28 -28 -34 -42 -34 -76 0 -34 6 -48 34 -76 28 -28 42
-34 76 -34 34 0 48 6 76 34 28 28 34 42 34 76 0 34 -6 48 -34 76 -28 28 -42
34 -76 34 -34 0 -48 -6 -76 -34z m119 13 c30 -13 57 -59 57 -94 0 -36 -59 -95
-94 -95 -80 0 -130 80 -92 149 25 45 81 62 129 40z"/>
<path d="M2611 2876 c-32 -18 -50 -53 -51 -99 0 -31 7 -46 34 -73 52 -52 127
-44 167 18 60 97 -50 210 -150 154z m121 -25 c27 -24 33 -36 33 -71 0 -72 -76
-121 -138 -89 -35 18 -57 51 -57 87 0 43 14 68 48 86 42 23 78 19 114 -13z"/>
<path d="M2248 2583 c-26 -7 -22 -22 6 -29 34 -8 61 -1 61 16 0 15 -35 22 -67
13z"/>
<path d="M2740 3130 c-11 -11 -20 -26 -20 -33 0 -24 31 -57 55 -57 52 0 74 65
33 94 -30 21 -44 20 -68 -4z m65 -34 c0 -10 -8 -24 -18 -30 -14 -9 -21 -7 -32
7 -19 27 -8 49 24 45 18 -2 26 -9 26 -22z"/>
<path d="M1462 2928 c-17 -17 -15 -53 4 -72 39 -39 106 1 88 52 -7 21 -17 28
-44 30 -19 2 -41 -3 -48 -10z m76 -35 c-4 -22 -32 -38 -52 -30 -21 8 -21 43 1
56 22 12 55 -5 51 -26z"/>
<path d="M3425 2710 c-8 -13 9 -20 24 -11 10 6 9 10 -3 14 -8 3 -18 2 -21 -3z"/>
<path d="M3611 2577 c-1 -10 -11 -21 -23 -26 l-23 -8 22 -7 c12 -4 24 -15 26
-24 4 -14 5 -15 6 -1 0 9 11 21 24 27 18 9 19 11 4 11 -10 1 -22 11 -27 24 -7
17 -9 18 -9 4z"/>
<path d="M1090 2268 c0 -8 -10 -20 -22 -26 l-23 -11 23 0 c16 -1 22 -7 23 -23
l0 -23 11 22 c6 12 17 23 24 25 9 2 5 11 -11 27 -18 16 -25 19 -25 9z"/>
</g>
</svg>
